<?xml version="1.0" encoding="UTF-8" standalone="no"?>
<!DOCTYPE svg PUBLIC "-//W3C//DTD SVG 1.1//EN"
 "http://www.w3.org/Graphics/SVG/1.1/DTD/svg11.dtd">
<!-- Generated by graphviz version 2.40.1 (20161225.0304)
 -->
<!-- Title: G Pages: 1 -->
<svg width="262pt" height="272pt"
 viewBox="0.00 0.00 261.50 272.00" xmlns="http://www.w3.org/2000/svg" xmlns:xlink="http://www.w3.org/1999/xlink">
<g id="graph0" class="graph" transform="scale(1 1) rotate(0) translate(4 268)">
<title>G</title>
<polygon fill="#ffffff" stroke="transparent" points="-4,4 -4,-268 257.5,-268 257.5,4 -4,4"/>
<!-- A0 -->
<g id="node1" class="node">
<title>A0</title>
<polygon fill="none" stroke="#000000" points=".5,-232 .5,-264 105.5,-264 105.5,-232 .5,-232"/>
<text text-anchor="start" x="35.7735" y="-245" font-family="Helvetica,sans-Serif" font-size="10.00" fill="#000000">Velerad</text>
<polygon fill="none" stroke="#000000" points=".5,-200 .5,-232 105.5,-232 105.5,-200 .5,-200"/>
<text text-anchor="start" x="10.2225" y="-213" font-family="Helvetica,sans-Serif" font-size="10.00" fill="#000000">Castellan of Wyzim</text>
</g>
<!-- A1 -->
<g id="node2" class="node">
<title>A1</title>
<polygon fill="none" stroke="#000000" points="124.5,-232 124.5,-264 177.5,-264 177.5,-232 124.5,-232"/>
<text text-anchor="start" x="137.388" y="-245" font-family="Helvetica,sans-Serif" font-size="10.00" fill="#000000">Geralt</text>
<polygon fill="none" stroke="#000000" points="124.5,-200 124.5,-232 177.5,-232 177.5,-200 124.5,-200"/>
<text text-anchor="start" x="134.058" y="-213" font-family="Helvetica,sans-Serif" font-size="10.00" fill="#000000">Witcher</text>
</g>
<!-- A2 -->
<g id="node3" class="node">
<title>A2</title>
<polygon fill="none" stroke="#000000" points="195.5,-232 195.5,-264 253.5,-264 253.5,-232 195.5,-232"/>
<text text-anchor="start" x="209.778" y="-245" font-family="Helvetica,sans-Serif" font-size="10.00" fill="#000000">Medell</text>
<polygon fill="none" stroke="#000000" points="195.5,-200 195.5,-232 253.5,-232 253.5,-200 195.5,-200"/>
<text text-anchor="start" x="205.329" y="-213" font-family="Helvetica,sans-Serif" font-size="10.00" fill="#000000">Old King</text>
</g>
<!-- A3 -->
<g id="node4" class="node">
<title>A3</title>
<polygon fill="none" stroke="#000000" points="171.5,-118 171.5,-150 221.5,-150 221.5,-118 171.5,-118"/>
<text text-anchor="start" x="181.498" y="-131" font-family="Helvetica,sans-Serif" font-size="10.00" fill="#000000">Foltest</text>
<polygon fill="none" stroke="#000000" points="171.5,-86 171.5,-118 221.5,-118 221.5,-86 171.5,-86"/>
<text text-anchor="start" x="186.497" y="-99" font-family="Helvetica,sans-Serif" font-size="10.00" fill="#000000">King</text>
</g>
<!-- A2&#45;&gt;A3 -->
<g id="edge1" class="edge">
<title>A2&#45;&gt;A3</title>
<path fill="none" stroke="#000000" d="M216.6259,-199.9413C213.584,-187.5562 210.0614,-173.2142 206.8217,-160.0239"/>
<polygon fill="#000000" stroke="#000000" points="204.412,-150.2131 211.1674,-158.8511 205.6046,-155.0688 206.7973,-159.9245 206.7973,-159.9245 206.7973,-159.9245 205.6046,-155.0688 202.4272,-160.9979 204.412,-150.2131 204.412,-150.2131"/>
<text text-anchor="middle" x="216.9439" y="-162.8" font-family="Helvetica,sans-Serif" font-size="10.00" fill="#000000">Father</text>
</g>
<!-- A4 -->
<g id="node5" class="node">
<title>A4</title>
<polygon fill="none" stroke="#000000" points="250.5,-36 196.5,-36 196.5,0 250.5,0 250.5,-36"/>
<text text-anchor="middle" x="223.5" y="-15" font-family="Helvetica,sans-Serif" font-size="10.00" fill="#000000">Adda</text>
</g>
<!-- A2&#45;&gt;A4 -->
<g id="edge2" class="edge">
<title>A2&#45;&gt;A4</title>
<path fill="none" stroke="#000000" d="M228.3796,-199.7278C230.0049,-184.6459 231.7004,-166.4298 232.5,-150 233.8826,-121.5892 234.3701,-114.3829 232.5,-86 231.6341,-72.8575 229.8364,-58.3785 228.0738,-46.1709"/>
<polygon fill="#000000" stroke="#000000" points="226.5582,-36.1185 232.4989,-45.3358 227.3037,-41.0626 228.0492,-46.0067 228.0492,-46.0067 228.0492,-46.0067 227.3037,-41.0626 223.5994,-46.6777 226.5582,-36.1185 226.5582,-36.1185"/>
<text text-anchor="middle" x="237.6185" y="-49.7819" font-family="Helvetica,sans-Serif" font-size="10.00" fill="#000000">Father</text>
</g>
<!-- A3&#45;&gt;A4 -->
<g id="edge3" class="edge">
<title>A3&#45;&gt;A4</title>
<path fill="none" stroke="#000000" d="M205.1916,-85.8089C209.6314,-69.3653 214.8693,-49.9656 218.6027,-36.1382"/>
<text text-anchor="middle" x="201.7563" y="-63.1062" font-family="Helvetica,sans-Serif" font-size="10.00" fill="#000000">Gross Insest</text>
</g>
</g>
</svg>
