<?xml version="1.0" encoding="UTF-8" standalone="no"?>
<!DOCTYPE svg PUBLIC "-//W3C//DTD SVG 1.1//EN"
 "http://www.w3.org/Graphics/SVG/1.1/DTD/svg11.dtd">
<!-- Generated by graphviz version 2.40.1 (20161225.0304)
 -->
<!-- Title: G Pages: 1 -->
<svg width="340pt" height="414pt"
 viewBox="0.00 0.00 339.50 414.00" xmlns="http://www.w3.org/2000/svg" xmlns:xlink="http://www.w3.org/1999/xlink">
<g id="graph0" class="graph" transform="scale(1 1) rotate(0) translate(4 410)">
<title>G</title>
<polygon fill="#ffffff" stroke="transparent" points="-4,4 -4,-410 335.5,-410 335.5,4 -4,4"/>
<!-- A0 -->
<g id="node1" class="node">
<title>A0</title>
<polygon fill="none" stroke="#000000" points=".5,-374 .5,-406 105.5,-406 105.5,-374 .5,-374"/>
<text text-anchor="start" x="35.7735" y="-387" font-family="Helvetica,sans-Serif" font-size="10.00" fill="#000000">Velerad</text>
<polygon fill="none" stroke="#000000" points=".5,-342 .5,-374 105.5,-374 105.5,-342 .5,-342"/>
<text text-anchor="start" x="10.2225" y="-355" font-family="Helvetica,sans-Serif" font-size="10.00" fill="#000000">Castellan of Wyzim</text>
</g>
<!-- A1 -->
<g id="node2" class="node">
<title>A1</title>
<polygon fill="none" stroke="#000000" points="124.5,-374 124.5,-406 177.5,-406 177.5,-374 124.5,-374"/>
<text text-anchor="start" x="137.388" y="-387" font-family="Helvetica,sans-Serif" font-size="10.00" fill="#000000">Geralt</text>
<polygon fill="none" stroke="#000000" points="124.5,-342 124.5,-374 177.5,-374 177.5,-342 124.5,-342"/>
<text text-anchor="start" x="134.058" y="-355" font-family="Helvetica,sans-Serif" font-size="10.00" fill="#000000">Witcher</text>
</g>
<!-- A2 -->
<g id="node3" class="node">
<title>A2</title>
<polygon fill="none" stroke="#000000" points="195.5,-374 195.5,-406 253.5,-406 253.5,-374 195.5,-374"/>
<text text-anchor="start" x="209.778" y="-387" font-family="Helvetica,sans-Serif" font-size="10.00" fill="#000000">Medell</text>
<polygon fill="none" stroke="#000000" points="195.5,-342 195.5,-374 253.5,-374 253.5,-342 195.5,-342"/>
<text text-anchor="start" x="205.329" y="-355" font-family="Helvetica,sans-Serif" font-size="10.00" fill="#000000">Old King</text>
</g>
<!-- A3 -->
<g id="node4" class="node">
<title>A3</title>
<polygon fill="none" stroke="#000000" points="201.5,-260 201.5,-292 251.5,-292 251.5,-260 201.5,-260"/>
<text text-anchor="start" x="211.498" y="-273" font-family="Helvetica,sans-Serif" font-size="10.00" fill="#000000">Foltest</text>
<polygon fill="none" stroke="#000000" points="201.5,-228 201.5,-260 251.5,-260 251.5,-228 201.5,-228"/>
<text text-anchor="start" x="216.497" y="-241" font-family="Helvetica,sans-Serif" font-size="10.00" fill="#000000">King</text>
</g>
<!-- A2&#45;&gt;A3 -->
<g id="edge1" class="edge">
<title>A2&#45;&gt;A3</title>
<path fill="none" stroke="#000000" d="M225.0624,-341.9413C225.2776,-329.6776 225.5264,-315.4952 225.7559,-302.4121"/>
<polygon fill="#000000" stroke="#000000" points="225.9349,-292.2131 230.2587,-302.2905 225.8471,-297.2123 225.7594,-302.2116 225.7594,-302.2116 225.7594,-302.2116 225.8471,-297.2123 221.26,-302.1326 225.9349,-292.2131 225.9349,-292.2131"/>
<text text-anchor="middle" x="234.068" y="-307.4847" font-family="Helvetica,sans-Serif" font-size="10.00" fill="#000000">Son</text>
<text text-anchor="middle" x="216.9293" y="-320.6696" font-family="Helvetica,sans-Serif" font-size="10.00" fill="#000000">Father</text>
</g>
<!-- A4 -->
<g id="node5" class="node">
<title>A4</title>
<polygon fill="none" stroke="#000000" points="125.5,-146 125.5,-178 218.5,-178 218.5,-146 125.5,-146"/>
<text text-anchor="start" x="160.327" y="-159" font-family="Helvetica,sans-Serif" font-size="10.00" fill="#000000">Adda</text>
<polygon fill="none" stroke="#000000" points="125.5,-114 125.5,-146 218.5,-146 218.5,-114 125.5,-114"/>
<text text-anchor="start" x="135.0535" y="-127" font-family="Helvetica,sans-Serif" font-size="10.00" fill="#000000">Died in childbirth</text>
</g>
<!-- A2&#45;&gt;A4 -->
<g id="edge2" class="edge">
<title>A2&#45;&gt;A4</title>
<path fill="none" stroke="#000000" d="M208.9104,-341.9668C202.2762,-327.0901 195.0376,-308.9729 190.5,-292 181.3572,-257.8011 176.546,-217.8753 174.0555,-188.4278"/>
<polygon fill="#000000" stroke="#000000" points="173.2392,-178.0828 178.512,-187.6978 173.6326,-183.0673 174.0259,-188.0518 174.0259,-188.0518 174.0259,-188.0518 173.6326,-183.0673 169.5399,-188.4058 173.2392,-178.0828 173.2392,-178.0828"/>
<text text-anchor="middle" x="183.0912" y="-192.4879" font-family="Helvetica,sans-Serif" font-size="10.00" fill="#000000">Daughter</text>
<text text-anchor="middle" x="193.8724" y="-325.7812" font-family="Helvetica,sans-Serif" font-size="10.00" fill="#000000">Father</text>
</g>
<!-- A3&#45;&gt;A4 -->
<g id="edge3" class="edge">
<title>A3&#45;&gt;A4</title>
<path fill="none" stroke="#000000" d="M211.0331,-227.9413C203.5347,-212.3992 194.5496,-193.7755 187.0414,-178.2131"/>
<text text-anchor="middle" x="195.5441" y="-212.2886" font-family="Helvetica,sans-Serif" font-size="10.00" fill="#000000">Gross Insest</text>
</g>
<!-- A7 -->
<g id="node8" class="node">
<title>A7</title>
<polygon fill="none" stroke="#000000" points="153.5,-32 153.5,-64 263.5,-64 263.5,-32 153.5,-32"/>
<text text-anchor="start" x="195.443" y="-45" font-family="Helvetica,sans-Serif" font-size="10.00" fill="#000000">Striga</text>
<polygon fill="none" stroke="#000000" points="153.5,0 153.5,-32 263.5,-32 263.5,0 153.5,0"/>
<text text-anchor="start" x="163.218" y="-13" font-family="Helvetica,sans-Serif" font-size="10.00" fill="#000000">Witchweed, monster</text>
</g>
<!-- A3&#45;&gt;A7 -->
<g id="edge5" class="edge">
<title>A3&#45;&gt;A7</title>
<path fill="none" stroke="#000000" d="M228.4783,-227.9943C229.8429,-198.3426 230.7365,-153.0591 226.5,-114 225.0738,-100.8514 222.3971,-86.7214 219.5356,-73.9578"/>
<polygon fill="#000000" stroke="#000000" points="217.2215,-64.0594 223.8799,-72.7724 218.3598,-68.9281 219.4981,-73.7968 219.4981,-73.7968 219.4981,-73.7968 218.3598,-68.9281 215.1162,-74.8213 217.2215,-64.0594 217.2215,-64.0594"/>
<text text-anchor="middle" x="229.5784" y="-76.7854" font-family="Helvetica,sans-Serif" font-size="10.00" fill="#000000">Daughter</text>
<text text-anchor="middle" x="220.7905" y="-206.5309" font-family="Helvetica,sans-Serif" font-size="10.00" fill="#000000">Father</text>
</g>
<!-- A4&#45;&gt;A7 -->
<g id="edge6" class="edge">
<title>A4&#45;&gt;A7</title>
<path fill="none" stroke="#000000" d="M181.905,-113.9413C185.9247,-101.5562 190.5796,-87.2142 194.8607,-74.0239"/>
<polygon fill="#000000" stroke="#000000" points="198.0449,-64.2131 199.2379,-75.1139 196.5013,-68.9689 194.9577,-73.7247 194.9577,-73.7247 194.9577,-73.7247 196.5013,-68.9689 190.6775,-72.3354 198.0449,-64.2131 198.0449,-64.2131"/>
<text text-anchor="middle" x="200.4887" y="-81.0632" font-family="Helvetica,sans-Serif" font-size="10.00" fill="#000000">Daughter</text>
<text text-anchor="middle" x="179.4612" y="-91.0911" font-family="Helvetica,sans-Serif" font-size="10.00" fill="#000000">Mother</text>
</g>
<!-- A5 -->
<g id="node6" class="node">
<title>A5</title>
<polygon fill="none" stroke="#000000" points="271.5,-374 271.5,-406 331.5,-406 331.5,-374 271.5,-374"/>
<text text-anchor="start" x="286.508" y="-387" font-family="Helvetica,sans-Serif" font-size="10.00" fill="#000000">Vizimir</text>
<polygon fill="none" stroke="#000000" points="271.5,-342 271.5,-374 331.5,-374 331.5,-342 271.5,-342"/>
<text text-anchor="start" x="281.4985" y="-355" font-family="Helvetica,sans-Serif" font-size="10.00" fill="#000000">Novigrad</text>
</g>
<!-- A6 -->
<g id="node7" class="node">
<title>A6</title>
<polygon fill="none" stroke="#000000" points="328.5,-278 274.5,-278 274.5,-242 328.5,-242 328.5,-278"/>
<text text-anchor="middle" x="301.5" y="-257" font-family="Helvetica,sans-Serif" font-size="10.00" fill="#000000">Dalka</text>
</g>
<!-- A5&#45;&gt;A6 -->
<g id="edge4" class="edge">
<title>A5&#45;&gt;A6</title>
<path fill="none" stroke="#000000" d="M301.5,-341.9413C301.5,-324.9782 301.5,-304.3441 301.5,-288.0258"/>
<polygon fill="#000000" stroke="#000000" points="301.5,-278.0076 306.0001,-288.0076 301.5,-283.0076 301.5001,-288.0076 301.5001,-288.0076 301.5001,-288.0076 301.5,-283.0076 297.0001,-288.0077 301.5,-278.0076 301.5,-278.0076"/>
<text text-anchor="middle" x="309.9524" y="-293.1338" font-family="Helvetica,sans-Serif" font-size="10.00" fill="#000000">Daughter</text>
<text text-anchor="middle" x="293.0476" y="-320.8151" font-family="Helvetica,sans-Serif" font-size="10.00" fill="#000000">Father</text>
</g>
</g>
</svg>
